<mxfile host="65bd71144e">
    <diagram id="NeQq1juEOl-MjfWiwLNs" name="Use cases">
        <mxGraphModel dx="815" dy="762" grid="0" gridSize="10" guides="1" tooltips="1" connect="1" arrows="1" fold="1" page="0" pageScale="1" pageWidth="850" pageHeight="1100" math="0" shadow="0">
            <root>
                <mxCell id="0"/>
                <mxCell id="1" parent="0"/>
                <mxCell id="QdHqiZuFh0BMqWVgXqE1-2" value="Client" style="shape=umlActor;verticalLabelPosition=bottom;verticalAlign=top;html=1;" parent="1" vertex="1">
                    <mxGeometry x="70" y="200" width="30" height="60" as="geometry"/>
                </mxCell>
                <mxCell id="QdHqiZuFh0BMqWVgXqE1-3" value="Admin" style="shape=umlActor;verticalLabelPosition=bottom;verticalAlign=top;html=1;" parent="1" vertex="1">
                    <mxGeometry x="80" y="450" width="30" height="60" as="geometry"/>
                </mxCell>
                <mxCell id="QdHqiZuFh0BMqWVgXqE1-4" value="&amp;lt;&amp;lt;actor&amp;gt;&amp;gt;&lt;br&gt;&lt;br&gt;&lt;b&gt;Système de paiement&lt;/b&gt;" style="html=1;align=center;verticalAlign=middle;dashed=0;" parent="1" vertex="1">
                    <mxGeometry x="680" y="140" width="160" height="70" as="geometry"/>
                </mxCell>
                <mxCell id="QdHqiZuFh0BMqWVgXqE1-5" value="CARLOC" style="shape=umlFrame;whiteSpace=wrap;html=1;width=120;height=30;boundedLbl=1;verticalAlign=middle;align=left;spacingLeft=5;" parent="1" vertex="1">
                    <mxGeometry x="210" y="110" width="410" height="420" as="geometry"/>
                </mxCell>
                <mxCell id="QdHqiZuFh0BMqWVgXqE1-6" value="&amp;lt;&amp;lt;actor&amp;gt;&amp;gt;&lt;br&gt;&lt;br&gt;&lt;b&gt;Système de notification&lt;/b&gt;" style="html=1;align=center;verticalAlign=middle;dashed=0;" parent="1" vertex="1">
                    <mxGeometry x="690" y="400" width="160" height="70" as="geometry"/>
                </mxCell>
                <mxCell id="QdHqiZuFh0BMqWVgXqE1-7" value="faire une réservation" style="ellipse;whiteSpace=wrap;html=1;" parent="1" vertex="1">
                    <mxGeometry x="275" y="295" width="160" height="50" as="geometry"/>
                </mxCell>
                <mxCell id="QdHqiZuFh0BMqWVgXqE1-9" value="Ajouter&amp;nbsp; au panier" style="ellipse;whiteSpace=wrap;html=1;" parent="1" vertex="1">
                    <mxGeometry x="265" y="153" width="140" height="40" as="geometry"/>
                </mxCell>
                <mxCell id="QdHqiZuFh0BMqWVgXqE1-10" value="CRUD des Voitures" style="ellipse;whiteSpace=wrap;html=1;" parent="1" vertex="1">
                    <mxGeometry x="290" y="380" width="135" height="40" as="geometry"/>
                </mxCell>
                <mxCell id="QdHqiZuFh0BMqWVgXqE1-12" value="Faire un réabonnement" style="ellipse;whiteSpace=wrap;html=1;" parent="1" vertex="1">
                    <mxGeometry x="271" y="240" width="150" height="40" as="geometry"/>
                </mxCell>
                <mxCell id="QdHqiZuFh0BMqWVgXqE1-13" value="Payer" style="ellipse;whiteSpace=wrap;html=1;" parent="1" vertex="1">
                    <mxGeometry x="482.5" y="240" width="100" height="40" as="geometry"/>
                </mxCell>
                <mxCell id="QdHqiZuFh0BMqWVgXqE1-14" value="Notifier" style="ellipse;whiteSpace=wrap;html=1;" parent="1" vertex="1">
                    <mxGeometry x="470" y="400" width="125" height="40" as="geometry"/>
                </mxCell>
                <mxCell id="QdHqiZuFh0BMqWVgXqE1-16" value="" style="endArrow=none;html=1;entryX=0;entryY=0.5;entryDx=0;entryDy=0;exitX=1;exitY=0.3333333333333333;exitDx=0;exitDy=0;exitPerimeter=0;" parent="1" source="QdHqiZuFh0BMqWVgXqE1-2" target="QdHqiZuFh0BMqWVgXqE1-9" edge="1">
                    <mxGeometry width="50" height="50" relative="1" as="geometry">
                        <mxPoint x="90" y="400" as="sourcePoint"/>
                        <mxPoint x="140" y="350" as="targetPoint"/>
                    </mxGeometry>
                </mxCell>
                <mxCell id="QdHqiZuFh0BMqWVgXqE1-17" value="" style="endArrow=none;html=1;entryX=0;entryY=0.5;entryDx=0;entryDy=0;exitX=1;exitY=0.3333333333333333;exitDx=0;exitDy=0;exitPerimeter=0;" parent="1" source="QdHqiZuFh0BMqWVgXqE1-2" target="QdHqiZuFh0BMqWVgXqE1-12" edge="1">
                    <mxGeometry width="50" height="50" relative="1" as="geometry">
                        <mxPoint x="100" y="410" as="sourcePoint"/>
                        <mxPoint x="150" y="360" as="targetPoint"/>
                    </mxGeometry>
                </mxCell>
                <mxCell id="QdHqiZuFh0BMqWVgXqE1-18" value="" style="endArrow=none;html=1;entryX=0;entryY=0.5;entryDx=0;entryDy=0;exitX=1;exitY=0.3333333333333333;exitDx=0;exitDy=0;exitPerimeter=0;" parent="1" source="QdHqiZuFh0BMqWVgXqE1-2" target="QdHqiZuFh0BMqWVgXqE1-7" edge="1">
                    <mxGeometry width="50" height="50" relative="1" as="geometry">
                        <mxPoint x="110" y="420" as="sourcePoint"/>
                        <mxPoint x="160" y="370" as="targetPoint"/>
                    </mxGeometry>
                </mxCell>
                <mxCell id="QdHqiZuFh0BMqWVgXqE1-19" value="" style="endArrow=none;html=1;entryX=0;entryY=0.5;entryDx=0;entryDy=0;exitX=1;exitY=0.3333333333333333;exitDx=0;exitDy=0;exitPerimeter=0;" parent="1" source="QdHqiZuFh0BMqWVgXqE1-3" target="QdHqiZuFh0BMqWVgXqE1-10" edge="1">
                    <mxGeometry width="50" height="50" relative="1" as="geometry">
                        <mxPoint x="120" y="430" as="sourcePoint"/>
                        <mxPoint x="170" y="380" as="targetPoint"/>
                    </mxGeometry>
                </mxCell>
                <mxCell id="QdHqiZuFh0BMqWVgXqE1-21" value="" style="endArrow=none;html=1;entryX=0;entryY=0.5;entryDx=0;entryDy=0;exitX=1;exitY=0.5;exitDx=0;exitDy=0;" parent="1" source="QdHqiZuFh0BMqWVgXqE1-14" target="QdHqiZuFh0BMqWVgXqE1-6" edge="1">
                    <mxGeometry width="50" height="50" relative="1" as="geometry">
                        <mxPoint x="140" y="450" as="sourcePoint"/>
                        <mxPoint x="190" y="400" as="targetPoint"/>
                    </mxGeometry>
                </mxCell>
                <mxCell id="QdHqiZuFh0BMqWVgXqE1-22" value="" style="endArrow=none;html=1;entryX=0;entryY=0.5;entryDx=0;entryDy=0;exitX=1;exitY=0.5;exitDx=0;exitDy=0;" parent="1" source="QdHqiZuFh0BMqWVgXqE1-13" target="QdHqiZuFh0BMqWVgXqE1-4" edge="1">
                    <mxGeometry width="50" height="50" relative="1" as="geometry">
                        <mxPoint x="150" y="460" as="sourcePoint"/>
                        <mxPoint x="200" y="410" as="targetPoint"/>
                    </mxGeometry>
                </mxCell>
                <mxCell id="2" value="Retirer du panier" style="ellipse;whiteSpace=wrap;html=1;" parent="1" vertex="1">
                    <mxGeometry x="271" y="193" width="140" height="40" as="geometry"/>
                </mxCell>
                <mxCell id="3" value="" style="endArrow=none;html=1;entryX=0;entryY=0.5;entryDx=0;entryDy=0;exitX=1;exitY=0.3333333333333333;exitDx=0;exitDy=0;exitPerimeter=0;" parent="1" source="QdHqiZuFh0BMqWVgXqE1-2" target="2" edge="1">
                    <mxGeometry width="50" height="50" relative="1" as="geometry">
                        <mxPoint x="110" y="230" as="sourcePoint"/>
                        <mxPoint x="150" y="360" as="targetPoint"/>
                    </mxGeometry>
                </mxCell>
            </root>
        </mxGraphModel>
    </diagram>
    <diagram id="lDZf18tKVs5R4xil55VZ" name="Diagramme des classes">
        <mxGraphModel dx="848" dy="819" grid="0" gridSize="10" guides="1" tooltips="1" connect="0" arrows="1" fold="1" page="0" pageScale="1" pageWidth="850" pageHeight="1100" math="0" shadow="0">
            <root>
                <mxCell id="0"/>
                <mxCell id="1" parent="0"/>
                <mxCell id="fAJywHdmxbsLxxpU6Vj_-1" value="User" style="swimlane;fontStyle=1;align=center;verticalAlign=top;childLayout=stackLayout;horizontal=1;startSize=26;horizontalStack=0;resizeParent=1;resizeParentMax=0;resizeLast=0;collapsible=1;marginBottom=0;" parent="1" vertex="1">
                    <mxGeometry x="-390" y="-310" width="210" height="144" as="geometry"/>
                </mxCell>
                <mxCell id="fAJywHdmxbsLxxpU6Vj_-2" value=" Id (int)# Nom (String)&#10;# Email (String)&#10;# Téléphone (long)&#10;# adresse (long)&#10;# Type (Client, SuperAdmin, etc.)" style="text;strokeColor=none;fillColor=none;align=left;verticalAlign=top;spacingLeft=4;spacingRight=4;overflow=hidden;rotatable=0;points=[[0,0.5],[1,0.5]];portConstraint=eastwest;" parent="fAJywHdmxbsLxxpU6Vj_-1" vertex="1">
                    <mxGeometry y="26" width="210" height="84" as="geometry"/>
                </mxCell>
                <mxCell id="fAJywHdmxbsLxxpU6Vj_-3" value="" style="line;strokeWidth=1;fillColor=none;align=left;verticalAlign=middle;spacingTop=-1;spacingLeft=3;spacingRight=3;rotatable=0;labelPosition=right;points=[];portConstraint=eastwest;strokeColor=inherit;" parent="fAJywHdmxbsLxxpU6Vj_-1" vertex="1">
                    <mxGeometry y="110" width="210" height="8" as="geometry"/>
                </mxCell>
                <mxCell id="fAJywHdmxbsLxxpU6Vj_-4" value="+ method(type): type" style="text;strokeColor=none;fillColor=none;align=left;verticalAlign=top;spacingLeft=4;spacingRight=4;overflow=hidden;rotatable=0;points=[[0,0.5],[1,0.5]];portConstraint=eastwest;" parent="fAJywHdmxbsLxxpU6Vj_-1" vertex="1">
                    <mxGeometry y="118" width="210" height="26" as="geometry"/>
                </mxCell>
                <mxCell id="fAJywHdmxbsLxxpU6Vj_-17" value="Voiture" style="swimlane;fontStyle=1;align=center;verticalAlign=top;childLayout=stackLayout;horizontal=1;startSize=26;horizontalStack=0;resizeParent=1;resizeParentMax=0;resizeLast=0;collapsible=1;marginBottom=0;" parent="1" vertex="1">
                    <mxGeometry x="370" y="560" width="380" height="240" as="geometry"/>
                </mxCell>
                <mxCell id="fAJywHdmxbsLxxpU6Vj_-18" value="- Id (int)&#10;- Nom (String)&#10;- Modèle (String)&#10;- Date de création (date)&#10;- Prix (int)&#10;- Vitesse (float)&#10;- Plaque (String)&#10;- Numero de chassis (int)" style="text;strokeColor=none;fillColor=none;align=left;verticalAlign=top;spacingLeft=4;spacingRight=4;overflow=hidden;rotatable=0;points=[[0,0.5],[1,0.5]];portConstraint=eastwest;" parent="fAJywHdmxbsLxxpU6Vj_-17" vertex="1">
                    <mxGeometry y="26" width="380" height="124" as="geometry"/>
                </mxCell>
                <mxCell id="fAJywHdmxbsLxxpU6Vj_-19" value="" style="line;strokeWidth=1;fillColor=none;align=left;verticalAlign=middle;spacingTop=-1;spacingLeft=3;spacingRight=3;rotatable=0;labelPosition=right;points=[];portConstraint=eastwest;strokeColor=inherit;" parent="fAJywHdmxbsLxxpU6Vj_-17" vertex="1">
                    <mxGeometry y="150" width="380" height="8" as="geometry"/>
                </mxCell>
                <mxCell id="fAJywHdmxbsLxxpU6Vj_-20" value="+ estDisponible(dateDebut: Date, dateFin: Date): bool&#10;+ genererFacture(reservation: Reservation): Facturation" style="text;strokeColor=none;fillColor=none;align=left;verticalAlign=top;spacingLeft=4;spacingRight=4;overflow=hidden;rotatable=0;points=[[0,0.5],[1,0.5]];portConstraint=eastwest;" parent="fAJywHdmxbsLxxpU6Vj_-17" vertex="1">
                    <mxGeometry y="158" width="380" height="82" as="geometry"/>
                </mxCell>
                <mxCell id="fAJywHdmxbsLxxpU6Vj_-21" value="Reservation" style="swimlane;fontStyle=1;align=center;verticalAlign=top;childLayout=stackLayout;horizontal=1;startSize=26;horizontalStack=0;resizeParent=1;resizeParentMax=0;resizeLast=0;collapsible=1;marginBottom=0;" parent="1" vertex="1">
                    <mxGeometry x="430" y="129" width="290" height="194" as="geometry"/>
                </mxCell>
                <mxCell id="fAJywHdmxbsLxxpU6Vj_-22" value="- Id (int)&#10;- Voiture_id (lié à la voiture)&#10;- Personne_id (lié à la personne/client)&#10;- Statut (payer, non payer, expirer)&#10;- Date de réservation&#10;- Date de retour" style="text;strokeColor=none;fillColor=none;align=left;verticalAlign=top;spacingLeft=4;spacingRight=4;overflow=hidden;rotatable=0;points=[[0,0.5],[1,0.5]];portConstraint=eastwest;" parent="fAJywHdmxbsLxxpU6Vj_-21" vertex="1">
                    <mxGeometry y="26" width="290" height="134" as="geometry"/>
                </mxCell>
                <mxCell id="fAJywHdmxbsLxxpU6Vj_-23" value="" style="line;strokeWidth=1;fillColor=none;align=left;verticalAlign=middle;spacingTop=-1;spacingLeft=3;spacingRight=3;rotatable=0;labelPosition=right;points=[];portConstraint=eastwest;strokeColor=inherit;" parent="fAJywHdmxbsLxxpU6Vj_-21" vertex="1">
                    <mxGeometry y="160" width="290" height="8" as="geometry"/>
                </mxCell>
                <mxCell id="fAJywHdmxbsLxxpU6Vj_-24" value="+ prolongerLocation(nouvelleDateFin: Date): void" style="text;strokeColor=none;fillColor=none;align=left;verticalAlign=top;spacingLeft=4;spacingRight=4;overflow=hidden;rotatable=0;points=[[0,0.5],[1,0.5]];portConstraint=eastwest;" parent="fAJywHdmxbsLxxpU6Vj_-21" vertex="1">
                    <mxGeometry y="168" width="290" height="26" as="geometry"/>
                </mxCell>
                <mxCell id="fAJywHdmxbsLxxpU6Vj_-25" value="Facturation" style="swimlane;fontStyle=1;align=center;verticalAlign=top;childLayout=stackLayout;horizontal=1;startSize=26;horizontalStack=0;resizeParent=1;resizeParentMax=0;resizeLast=0;collapsible=1;marginBottom=0;" parent="1" vertex="1">
                    <mxGeometry x="1031" y="-298" width="220" height="194" as="geometry"/>
                </mxCell>
                <mxCell id="fAJywHdmxbsLxxpU6Vj_-26" value="- Id (int)&#10;- Paiement_id (lié au paiement)&#10;- Montant total&#10;- Remise&#10;- Autres détails liés à la facturation" style="text;strokeColor=none;fillColor=none;align=left;verticalAlign=top;spacingLeft=4;spacingRight=4;overflow=hidden;rotatable=0;points=[[0,0.5],[1,0.5]];portConstraint=eastwest;" parent="fAJywHdmxbsLxxpU6Vj_-25" vertex="1">
                    <mxGeometry y="26" width="220" height="134" as="geometry"/>
                </mxCell>
                <mxCell id="fAJywHdmxbsLxxpU6Vj_-27" value="" style="line;strokeWidth=1;fillColor=none;align=left;verticalAlign=middle;spacingTop=-1;spacingLeft=3;spacingRight=3;rotatable=0;labelPosition=right;points=[];portConstraint=eastwest;strokeColor=inherit;" parent="fAJywHdmxbsLxxpU6Vj_-25" vertex="1">
                    <mxGeometry y="160" width="220" height="8" as="geometry"/>
                </mxCell>
                <mxCell id="fAJywHdmxbsLxxpU6Vj_-28" value="+ envoyerFactureEmail(): void" style="text;strokeColor=none;fillColor=none;align=left;verticalAlign=top;spacingLeft=4;spacingRight=4;overflow=hidden;rotatable=0;points=[[0,0.5],[1,0.5]];portConstraint=eastwest;" parent="fAJywHdmxbsLxxpU6Vj_-25" vertex="1">
                    <mxGeometry y="168" width="220" height="26" as="geometry"/>
                </mxCell>
                <mxCell id="fAJywHdmxbsLxxpU6Vj_-29" value="Paiement" style="swimlane;fontStyle=1;align=center;verticalAlign=top;childLayout=stackLayout;horizontal=1;startSize=26;horizontalStack=0;resizeParent=1;resizeParentMax=0;resizeLast=0;collapsible=1;marginBottom=0;" parent="1" vertex="1">
                    <mxGeometry x="420" y="-298" width="270" height="194" as="geometry"/>
                </mxCell>
                <mxCell id="fAJywHdmxbsLxxpU6Vj_-30" value="- Id (int)&#10;- Reservation_id (lié à la réservation)&#10;- Etat (payer, non payer)&#10;- Remise&#10;- Autres détails liés au paiement" style="text;strokeColor=none;fillColor=none;align=left;verticalAlign=top;spacingLeft=4;spacingRight=4;overflow=hidden;rotatable=0;points=[[0,0.5],[1,0.5]];portConstraint=eastwest;" parent="fAJywHdmxbsLxxpU6Vj_-29" vertex="1">
                    <mxGeometry y="26" width="270" height="134" as="geometry"/>
                </mxCell>
                <mxCell id="fAJywHdmxbsLxxpU6Vj_-31" value="" style="line;strokeWidth=1;fillColor=none;align=left;verticalAlign=middle;spacingTop=-1;spacingLeft=3;spacingRight=3;rotatable=0;labelPosition=right;points=[];portConstraint=eastwest;strokeColor=inherit;" parent="fAJywHdmxbsLxxpU6Vj_-29" vertex="1">
                    <mxGeometry y="160" width="270" height="8" as="geometry"/>
                </mxCell>
                <mxCell id="fAJywHdmxbsLxxpU6Vj_-32" value="+confirmerPaiement(): void" style="text;strokeColor=none;fillColor=none;align=left;verticalAlign=top;spacingLeft=4;spacingRight=4;overflow=hidden;rotatable=0;points=[[0,0.5],[1,0.5]];portConstraint=eastwest;" parent="fAJywHdmxbsLxxpU6Vj_-29" vertex="1">
                    <mxGeometry y="168" width="270" height="26" as="geometry"/>
                </mxCell>
                <mxCell id="LMUNetd-bz6SimVI5U5I-1" value="Livraison" style="swimlane;fontStyle=1;align=center;verticalAlign=top;childLayout=stackLayout;horizontal=1;startSize=26;horizontalStack=0;resizeParent=1;resizeParentMax=0;resizeLast=0;collapsible=1;marginBottom=0;" parent="1" vertex="1">
                    <mxGeometry x="931" y="110" width="420" height="194" as="geometry"/>
                </mxCell>
                <mxCell id="LMUNetd-bz6SimVI5U5I-2" value="- Id (int)&#10;- Reservation_id (lié à la réservation)&#10;- Date de livraison&#10;- Adresse de livraison&#10;- Autres détails liés à la livraison" style="text;strokeColor=none;fillColor=none;align=left;verticalAlign=top;spacingLeft=4;spacingRight=4;overflow=hidden;rotatable=0;points=[[0,0.5],[1,0.5]];portConstraint=eastwest;" parent="LMUNetd-bz6SimVI5U5I-1" vertex="1">
                    <mxGeometry y="26" width="420" height="134" as="geometry"/>
                </mxCell>
                <mxCell id="LMUNetd-bz6SimVI5U5I-3" value="" style="line;strokeWidth=1;fillColor=none;align=left;verticalAlign=middle;spacingTop=-1;spacingLeft=3;spacingRight=3;rotatable=0;labelPosition=right;points=[];portConstraint=eastwest;strokeColor=inherit;" parent="LMUNetd-bz6SimVI5U5I-1" vertex="1">
                    <mxGeometry y="160" width="420" height="8" as="geometry"/>
                </mxCell>
                <mxCell id="LMUNetd-bz6SimVI5U5I-4" value="+ planifierLivraison(dateLivraison: Date, adresse: String): void&#10;&#10;&#10;" style="text;strokeColor=none;fillColor=none;align=left;verticalAlign=top;spacingLeft=4;spacingRight=4;overflow=hidden;rotatable=0;points=[[0,0.5],[1,0.5]];portConstraint=eastwest;" parent="LMUNetd-bz6SimVI5U5I-1" vertex="1">
                    <mxGeometry y="168" width="420" height="26" as="geometry"/>
                </mxCell>
                <mxCell id="LMUNetd-bz6SimVI5U5I-26" value="gerer" style="text;html=1;align=center;verticalAlign=middle;resizable=0;points=[];autosize=1;strokeColor=none;fillColor=none;fontSize=28;" parent="1" vertex="1">
                    <mxGeometry x="-40" y="580" width="90" height="50" as="geometry"/>
                </mxCell>
                <mxCell id="6Jn6G0yWUToKbzBOJL0x-1" value="Panier" style="swimlane;fontStyle=1;align=center;verticalAlign=top;childLayout=stackLayout;horizontal=1;startSize=26;horizontalStack=0;resizeParent=1;resizeParentMax=0;resizeLast=0;collapsible=1;marginBottom=0;" parent="1" vertex="1">
                    <mxGeometry x="-220" y="420" width="290" height="194" as="geometry"/>
                </mxCell>
                <mxCell id="6Jn6G0yWUToKbzBOJL0x-2" value="- Id (int)&#10;- Voiture_id (lié à la voiture)&#10;- Personne_id (lié à la personne/client)&#10;- Statut (payer, non payer, expirer)&#10;- Date de réservation&#10;- Date de retour" style="text;strokeColor=none;fillColor=none;align=left;verticalAlign=top;spacingLeft=4;spacingRight=4;overflow=hidden;rotatable=0;points=[[0,0.5],[1,0.5]];portConstraint=eastwest;" parent="6Jn6G0yWUToKbzBOJL0x-1" vertex="1">
                    <mxGeometry y="26" width="290" height="134" as="geometry"/>
                </mxCell>
                <mxCell id="6Jn6G0yWUToKbzBOJL0x-3" value="" style="line;strokeWidth=1;fillColor=none;align=left;verticalAlign=middle;spacingTop=-1;spacingLeft=3;spacingRight=3;rotatable=0;labelPosition=right;points=[];portConstraint=eastwest;strokeColor=inherit;" parent="6Jn6G0yWUToKbzBOJL0x-1" vertex="1">
                    <mxGeometry y="160" width="290" height="8" as="geometry"/>
                </mxCell>
                <mxCell id="6Jn6G0yWUToKbzBOJL0x-4" value="+ prolongerLocation(nouvelleDateFin: Date): void" style="text;strokeColor=none;fillColor=none;align=left;verticalAlign=top;spacingLeft=4;spacingRight=4;overflow=hidden;rotatable=0;points=[[0,0.5],[1,0.5]];portConstraint=eastwest;" parent="6Jn6G0yWUToKbzBOJL0x-1" vertex="1">
                    <mxGeometry y="168" width="290" height="26" as="geometry"/>
                </mxCell>
            </root>
        </mxGraphModel>
    </diagram>
    <diagram id="4i6NwynmlRmY_4l0aQg9" name="Diagramme des classes">
        <mxGraphModel dx="848" dy="819" grid="0" gridSize="10" guides="1" tooltips="1" connect="1" arrows="1" fold="1" page="0" pageScale="1" pageWidth="850" pageHeight="1100" math="0" shadow="0">
            <root>
                <mxCell id="0"/>
                <mxCell id="1" parent="0"/>
                <mxCell id="01228Vc2_KbZ6Ty9q4aQ-6" value="Reservation" style="swimlane;fontStyle=1;align=center;verticalAlign=top;childLayout=stackLayout;horizontal=1;startSize=26;horizontalStack=0;resizeParent=1;resizeParentMax=0;resizeLast=0;collapsible=1;marginBottom=0;" parent="1" vertex="1">
                    <mxGeometry x="106" y="-82" width="160" height="86" as="geometry"/>
                </mxCell>
                <mxCell id="01228Vc2_KbZ6Ty9q4aQ-7" value="+ field: type" style="text;strokeColor=none;fillColor=none;align=left;verticalAlign=top;spacingLeft=4;spacingRight=4;overflow=hidden;rotatable=0;points=[[0,0.5],[1,0.5]];portConstraint=eastwest;" parent="01228Vc2_KbZ6Ty9q4aQ-6" vertex="1">
                    <mxGeometry y="26" width="160" height="26" as="geometry"/>
                </mxCell>
                <mxCell id="01228Vc2_KbZ6Ty9q4aQ-8" value="" style="line;strokeWidth=1;fillColor=none;align=left;verticalAlign=middle;spacingTop=-1;spacingLeft=3;spacingRight=3;rotatable=0;labelPosition=right;points=[];portConstraint=eastwest;strokeColor=inherit;" parent="01228Vc2_KbZ6Ty9q4aQ-6" vertex="1">
                    <mxGeometry y="52" width="160" height="8" as="geometry"/>
                </mxCell>
                <mxCell id="01228Vc2_KbZ6Ty9q4aQ-9" value="+ method(type): type" style="text;strokeColor=none;fillColor=none;align=left;verticalAlign=top;spacingLeft=4;spacingRight=4;overflow=hidden;rotatable=0;points=[[0,0.5],[1,0.5]];portConstraint=eastwest;" parent="01228Vc2_KbZ6Ty9q4aQ-6" vertex="1">
                    <mxGeometry y="60" width="160" height="26" as="geometry"/>
                </mxCell>
                <mxCell id="01228Vc2_KbZ6Ty9q4aQ-10" value="Abonnement" style="swimlane;fontStyle=1;align=center;verticalAlign=top;childLayout=stackLayout;horizontal=1;startSize=26;horizontalStack=0;resizeParent=1;resizeParentMax=0;resizeLast=0;collapsible=1;marginBottom=0;" parent="1" vertex="1">
                    <mxGeometry x="450" y="-78" width="160" height="86" as="geometry"/>
                </mxCell>
                <mxCell id="01228Vc2_KbZ6Ty9q4aQ-11" value="+ field: type" style="text;strokeColor=none;fillColor=none;align=left;verticalAlign=top;spacingLeft=4;spacingRight=4;overflow=hidden;rotatable=0;points=[[0,0.5],[1,0.5]];portConstraint=eastwest;" parent="01228Vc2_KbZ6Ty9q4aQ-10" vertex="1">
                    <mxGeometry y="26" width="160" height="26" as="geometry"/>
                </mxCell>
                <mxCell id="01228Vc2_KbZ6Ty9q4aQ-12" value="" style="line;strokeWidth=1;fillColor=none;align=left;verticalAlign=middle;spacingTop=-1;spacingLeft=3;spacingRight=3;rotatable=0;labelPosition=right;points=[];portConstraint=eastwest;strokeColor=inherit;" parent="01228Vc2_KbZ6Ty9q4aQ-10" vertex="1">
                    <mxGeometry y="52" width="160" height="8" as="geometry"/>
                </mxCell>
                <mxCell id="01228Vc2_KbZ6Ty9q4aQ-13" value="+ method(type): type" style="text;strokeColor=none;fillColor=none;align=left;verticalAlign=top;spacingLeft=4;spacingRight=4;overflow=hidden;rotatable=0;points=[[0,0.5],[1,0.5]];portConstraint=eastwest;" parent="01228Vc2_KbZ6Ty9q4aQ-10" vertex="1">
                    <mxGeometry y="60" width="160" height="26" as="geometry"/>
                </mxCell>
                <mxCell id="01228Vc2_KbZ6Ty9q4aQ-18" value="Panier" style="swimlane;fontStyle=1;align=center;verticalAlign=top;childLayout=stackLayout;horizontal=1;startSize=26;horizontalStack=0;resizeParent=1;resizeParentMax=0;resizeLast=0;collapsible=1;marginBottom=0;" parent="1" vertex="1">
                    <mxGeometry x="-261" y="-312" width="160" height="86" as="geometry"/>
                </mxCell>
                <mxCell id="01228Vc2_KbZ6Ty9q4aQ-19" value="+ field: type" style="text;strokeColor=none;fillColor=none;align=left;verticalAlign=top;spacingLeft=4;spacingRight=4;overflow=hidden;rotatable=0;points=[[0,0.5],[1,0.5]];portConstraint=eastwest;" parent="01228Vc2_KbZ6Ty9q4aQ-18" vertex="1">
                    <mxGeometry y="26" width="160" height="26" as="geometry"/>
                </mxCell>
                <mxCell id="01228Vc2_KbZ6Ty9q4aQ-20" value="" style="line;strokeWidth=1;fillColor=none;align=left;verticalAlign=middle;spacingTop=-1;spacingLeft=3;spacingRight=3;rotatable=0;labelPosition=right;points=[];portConstraint=eastwest;strokeColor=inherit;" parent="01228Vc2_KbZ6Ty9q4aQ-18" vertex="1">
                    <mxGeometry y="52" width="160" height="8" as="geometry"/>
                </mxCell>
                <mxCell id="01228Vc2_KbZ6Ty9q4aQ-21" value="+ method(type): type" style="text;strokeColor=none;fillColor=none;align=left;verticalAlign=top;spacingLeft=4;spacingRight=4;overflow=hidden;rotatable=0;points=[[0,0.5],[1,0.5]];portConstraint=eastwest;" parent="01228Vc2_KbZ6Ty9q4aQ-18" vertex="1">
                    <mxGeometry y="60" width="160" height="26" as="geometry"/>
                </mxCell>
                <mxCell id="01228Vc2_KbZ6Ty9q4aQ-22" value="Payement" style="swimlane;fontStyle=1;align=center;verticalAlign=top;childLayout=stackLayout;horizontal=1;startSize=26;horizontalStack=0;resizeParent=1;resizeParentMax=0;resizeLast=0;collapsible=1;marginBottom=0;" parent="1" vertex="1">
                    <mxGeometry x="106" y="149" width="160" height="86" as="geometry"/>
                </mxCell>
                <mxCell id="01228Vc2_KbZ6Ty9q4aQ-23" value="+ field: type" style="text;strokeColor=none;fillColor=none;align=left;verticalAlign=top;spacingLeft=4;spacingRight=4;overflow=hidden;rotatable=0;points=[[0,0.5],[1,0.5]];portConstraint=eastwest;" parent="01228Vc2_KbZ6Ty9q4aQ-22" vertex="1">
                    <mxGeometry y="26" width="160" height="26" as="geometry"/>
                </mxCell>
                <mxCell id="01228Vc2_KbZ6Ty9q4aQ-24" value="" style="line;strokeWidth=1;fillColor=none;align=left;verticalAlign=middle;spacingTop=-1;spacingLeft=3;spacingRight=3;rotatable=0;labelPosition=right;points=[];portConstraint=eastwest;strokeColor=inherit;" parent="01228Vc2_KbZ6Ty9q4aQ-22" vertex="1">
                    <mxGeometry y="52" width="160" height="8" as="geometry"/>
                </mxCell>
                <mxCell id="01228Vc2_KbZ6Ty9q4aQ-25" value="+ method(type): type" style="text;strokeColor=none;fillColor=none;align=left;verticalAlign=top;spacingLeft=4;spacingRight=4;overflow=hidden;rotatable=0;points=[[0,0.5],[1,0.5]];portConstraint=eastwest;" parent="01228Vc2_KbZ6Ty9q4aQ-22" vertex="1">
                    <mxGeometry y="60" width="160" height="26" as="geometry"/>
                </mxCell>
                <mxCell id="01228Vc2_KbZ6Ty9q4aQ-26" value="Voiture" style="swimlane;fontStyle=1;align=center;verticalAlign=top;childLayout=stackLayout;horizontal=1;startSize=26;horizontalStack=0;resizeParent=1;resizeParentMax=0;resizeLast=0;collapsible=1;marginBottom=0;" parent="1" vertex="1">
                    <mxGeometry x="111" y="-312" width="160" height="86" as="geometry"/>
                </mxCell>
                <mxCell id="01228Vc2_KbZ6Ty9q4aQ-27" value="+ field: type" style="text;strokeColor=none;fillColor=none;align=left;verticalAlign=top;spacingLeft=4;spacingRight=4;overflow=hidden;rotatable=0;points=[[0,0.5],[1,0.5]];portConstraint=eastwest;" parent="01228Vc2_KbZ6Ty9q4aQ-26" vertex="1">
                    <mxGeometry y="26" width="160" height="26" as="geometry"/>
                </mxCell>
                <mxCell id="01228Vc2_KbZ6Ty9q4aQ-28" value="" style="line;strokeWidth=1;fillColor=none;align=left;verticalAlign=middle;spacingTop=-1;spacingLeft=3;spacingRight=3;rotatable=0;labelPosition=right;points=[];portConstraint=eastwest;strokeColor=inherit;" parent="01228Vc2_KbZ6Ty9q4aQ-26" vertex="1">
                    <mxGeometry y="52" width="160" height="8" as="geometry"/>
                </mxCell>
                <mxCell id="01228Vc2_KbZ6Ty9q4aQ-29" value="+ method(type): type" style="text;strokeColor=none;fillColor=none;align=left;verticalAlign=top;spacingLeft=4;spacingRight=4;overflow=hidden;rotatable=0;points=[[0,0.5],[1,0.5]];portConstraint=eastwest;" parent="01228Vc2_KbZ6Ty9q4aQ-26" vertex="1">
                    <mxGeometry y="60" width="160" height="26" as="geometry"/>
                </mxCell>
                <mxCell id="01228Vc2_KbZ6Ty9q4aQ-34" value="User" style="swimlane;fontStyle=1;align=center;verticalAlign=top;childLayout=stackLayout;horizontal=1;startSize=26;horizontalStack=0;resizeParent=1;resizeParentMax=0;resizeLast=0;collapsible=1;marginBottom=0;" parent="1" vertex="1">
                    <mxGeometry x="-258" y="-82" width="160" height="86" as="geometry"/>
                </mxCell>
                <mxCell id="01228Vc2_KbZ6Ty9q4aQ-35" value="+ field: type" style="text;strokeColor=none;fillColor=none;align=left;verticalAlign=top;spacingLeft=4;spacingRight=4;overflow=hidden;rotatable=0;points=[[0,0.5],[1,0.5]];portConstraint=eastwest;" parent="01228Vc2_KbZ6Ty9q4aQ-34" vertex="1">
                    <mxGeometry y="26" width="160" height="26" as="geometry"/>
                </mxCell>
                <mxCell id="01228Vc2_KbZ6Ty9q4aQ-36" value="" style="line;strokeWidth=1;fillColor=none;align=left;verticalAlign=middle;spacingTop=-1;spacingLeft=3;spacingRight=3;rotatable=0;labelPosition=right;points=[];portConstraint=eastwest;strokeColor=inherit;" parent="01228Vc2_KbZ6Ty9q4aQ-34" vertex="1">
                    <mxGeometry y="52" width="160" height="8" as="geometry"/>
                </mxCell>
                <mxCell id="01228Vc2_KbZ6Ty9q4aQ-37" value="+ method(type): type" style="text;strokeColor=none;fillColor=none;align=left;verticalAlign=top;spacingLeft=4;spacingRight=4;overflow=hidden;rotatable=0;points=[[0,0.5],[1,0.5]];portConstraint=eastwest;" parent="01228Vc2_KbZ6Ty9q4aQ-34" vertex="1">
                    <mxGeometry y="60" width="160" height="26" as="geometry"/>
                </mxCell>
                <mxCell id="P20ZTJo8JUvj_LGLOlSk-5" value="0..*" style="text;html=1;align=center;verticalAlign=middle;resizable=0;points=[];autosize=1;strokeColor=none;fillColor=none;" parent="1" vertex="1">
                    <mxGeometry x="-170" y="-123" width="40" height="30" as="geometry"/>
                </mxCell>
                <mxCell id="aKRieEGCqobvJlqnoh_I-8" value="" style="edgeStyle=none;html=1;" parent="1" edge="1">
                    <mxGeometry relative="1" as="geometry">
                        <mxPoint x="433" y="492" as="targetPoint"/>
                    </mxGeometry>
                </mxCell>
                <mxCell id="aKRieEGCqobvJlqnoh_I-5" value="1..1" style="text;html=1;align=center;verticalAlign=middle;resizable=0;points=[];autosize=1;strokeColor=none;fillColor=none;" parent="1" vertex="1">
                    <mxGeometry x="278" y="-78" width="40" height="30" as="geometry"/>
                </mxCell>
                <mxCell id="aKRieEGCqobvJlqnoh_I-11" value="" style="endArrow=classic;html=1;entryX=0.519;entryY=1.071;entryDx=0;entryDy=0;entryPerimeter=0;exitX=0.5;exitY=0;exitDx=0;exitDy=0;" parent="1" source="01228Vc2_KbZ6Ty9q4aQ-34" target="01228Vc2_KbZ6Ty9q4aQ-21" edge="1">
                    <mxGeometry width="50" height="50" relative="1" as="geometry">
                        <mxPoint x="72" y="-48" as="sourcePoint"/>
                        <mxPoint x="122" y="-98" as="targetPoint"/>
                    </mxGeometry>
                </mxCell>
                <mxCell id="aKRieEGCqobvJlqnoh_I-13" value="" style="endArrow=classic;html=1;entryX=1;entryY=0.5;entryDx=0;entryDy=0;exitX=0;exitY=0.5;exitDx=0;exitDy=0;" parent="1" source="01228Vc2_KbZ6Ty9q4aQ-27" target="01228Vc2_KbZ6Ty9q4aQ-19" edge="1">
                    <mxGeometry width="50" height="50" relative="1" as="geometry">
                        <mxPoint x="-335" y="-25" as="sourcePoint"/>
                        <mxPoint x="-334.9600000000005" y="-214.154" as="targetPoint"/>
                    </mxGeometry>
                </mxCell>
                <mxCell id="aKRieEGCqobvJlqnoh_I-14" value="" style="endArrow=classic;html=1;entryX=0;entryY=0.5;entryDx=0;entryDy=0;exitX=1;exitY=0.5;exitDx=0;exitDy=0;" parent="1" source="01228Vc2_KbZ6Ty9q4aQ-35" target="01228Vc2_KbZ6Ty9q4aQ-7" edge="1">
                    <mxGeometry width="50" height="50" relative="1" as="geometry">
                        <mxPoint x="-325" y="-62" as="sourcePoint"/>
                        <mxPoint x="-324.9600000000005" y="-251.154" as="targetPoint"/>
                    </mxGeometry>
                </mxCell>
                <mxCell id="aKRieEGCqobvJlqnoh_I-16" value="" style="endArrow=classic;html=1;entryX=0.5;entryY=0;entryDx=0;entryDy=0;exitX=0.462;exitY=1.212;exitDx=0;exitDy=0;exitPerimeter=0;" parent="1" source="01228Vc2_KbZ6Ty9q4aQ-29" target="01228Vc2_KbZ6Ty9q4aQ-6" edge="1">
                    <mxGeometry width="50" height="50" relative="1" as="geometry">
                        <mxPoint x="-315" y="-5" as="sourcePoint"/>
                        <mxPoint x="-314.9600000000005" y="-194.154" as="targetPoint"/>
                    </mxGeometry>
                </mxCell>
                <mxCell id="aKRieEGCqobvJlqnoh_I-17" value="" style="endArrow=classic;html=1;entryX=0.5;entryY=0;entryDx=0;entryDy=0;exitX=0.504;exitY=1.263;exitDx=0;exitDy=0;exitPerimeter=0;" parent="1" source="01228Vc2_KbZ6Ty9q4aQ-9" target="01228Vc2_KbZ6Ty9q4aQ-22" edge="1">
                    <mxGeometry width="50" height="50" relative="1" as="geometry">
                        <mxPoint x="-305" y="5" as="sourcePoint"/>
                        <mxPoint x="-304.9600000000005" y="-184.154" as="targetPoint"/>
                    </mxGeometry>
                </mxCell>
                <mxCell id="aKRieEGCqobvJlqnoh_I-18" value="" style="endArrow=classic;html=1;entryX=1;entryY=0.5;entryDx=0;entryDy=0;exitX=0;exitY=0.5;exitDx=0;exitDy=0;" parent="1" source="01228Vc2_KbZ6Ty9q4aQ-11" target="01228Vc2_KbZ6Ty9q4aQ-7" edge="1">
                    <mxGeometry width="50" height="50" relative="1" as="geometry">
                        <mxPoint x="-295" y="-32" as="sourcePoint"/>
                        <mxPoint x="-294.9600000000005" y="-221.154" as="targetPoint"/>
                    </mxGeometry>
                </mxCell>
                <mxCell id="aKRieEGCqobvJlqnoh_I-19" value="1..1" style="text;html=1;align=center;verticalAlign=middle;resizable=0;points=[];autosize=1;strokeColor=none;fillColor=none;" parent="1" vertex="1">
                    <mxGeometry x="197" y="17" width="40" height="30" as="geometry"/>
                </mxCell>
                <mxCell id="aKRieEGCqobvJlqnoh_I-20" value="1..1" style="text;html=1;align=center;verticalAlign=middle;resizable=0;points=[];autosize=1;strokeColor=none;fillColor=none;" parent="1" vertex="1">
                    <mxGeometry x="197" y="108" width="40" height="30" as="geometry"/>
                </mxCell>
                <mxCell id="aKRieEGCqobvJlqnoh_I-21" value="1..1" style="text;html=1;align=center;verticalAlign=middle;resizable=0;points=[];autosize=1;strokeColor=none;fillColor=none;" parent="1" vertex="1">
                    <mxGeometry x="-173" y="-202" width="40" height="30" as="geometry"/>
                </mxCell>
                <mxCell id="aKRieEGCqobvJlqnoh_I-22" value="0..*" style="text;html=1;align=center;verticalAlign=middle;resizable=0;points=[];autosize=1;strokeColor=none;fillColor=none;" parent="1" vertex="1">
                    <mxGeometry x="397" y="-82" width="40" height="30" as="geometry"/>
                </mxCell>
                <mxCell id="aKRieEGCqobvJlqnoh_I-23" value="0..*" style="text;html=1;align=center;verticalAlign=middle;resizable=0;points=[];autosize=1;strokeColor=none;fillColor=none;" parent="1" vertex="1">
                    <mxGeometry x="-92" y="-26" width="40" height="30" as="geometry"/>
                </mxCell>
                <mxCell id="aKRieEGCqobvJlqnoh_I-24" value="0..*" style="text;html=1;align=center;verticalAlign=middle;resizable=0;points=[];autosize=1;strokeColor=none;fillColor=none;" parent="1" vertex="1">
                    <mxGeometry x="59" y="-312" width="40" height="30" as="geometry"/>
                </mxCell>
                <mxCell id="aKRieEGCqobvJlqnoh_I-25" value="1..1" style="text;html=1;align=center;verticalAlign=middle;resizable=0;points=[];autosize=1;strokeColor=none;fillColor=none;" parent="1" vertex="1">
                    <mxGeometry x="192" y="-217" width="40" height="30" as="geometry"/>
                </mxCell>
                <mxCell id="aKRieEGCqobvJlqnoh_I-26" value="1..1" style="text;html=1;align=center;verticalAlign=middle;resizable=0;points=[];autosize=1;strokeColor=none;fillColor=none;" parent="1" vertex="1">
                    <mxGeometry x="-84" y="-312" width="40" height="30" as="geometry"/>
                </mxCell>
                <mxCell id="aKRieEGCqobvJlqnoh_I-27" value="1..1" style="text;html=1;align=center;verticalAlign=middle;resizable=0;points=[];autosize=1;strokeColor=none;fillColor=none;" parent="1" vertex="1">
                    <mxGeometry x="197" y="-123" width="40" height="30" as="geometry"/>
                </mxCell>
                <mxCell id="aKRieEGCqobvJlqnoh_I-28" value="1..1" style="text;html=1;align=center;verticalAlign=middle;resizable=0;points=[];autosize=1;strokeColor=none;fillColor=none;" parent="1" vertex="1">
                    <mxGeometry x="54" y="-26" width="40" height="30" as="geometry"/>
                </mxCell>
            </root>
        </mxGraphModel>
    </diagram>
</mxfile>